<svg id="Capa_1" enable-background="new 0 0 512 512" height="512" viewBox="0 0 512 512" width="512" xmlns="http://www.w3.org/2000/svg"><g><path d="m195.19 131.35h13.58l-6.76-17.9z"/><path d="m452.28 0h-323.73c-41.35 0-74.99 33.64-74.99 74.99v312.12c15.62-13.8 36.12-22.18 58.54-22.18h346.34v-358.77c0-3.4-2.77-6.16-6.16-6.16zm-207.76 183.6c-7.649 2.901-16.37-.903-19.33-8.74l-5.1-13.51h-36.32l-5.16 13.55c-2.95 7.75-11.62 11.63-19.36 8.68s-11.63-11.61-8.68-19.35l35.5-93.2c.04-.12.09-.23.13-.34 5.807-14.178 25.906-14.202 31.72-.03.06.13.11.27.16.41l35.18 93.2c2.92 7.75-.99 16.4-8.74 19.33zm102.89 129.36h-63.06c-11.918 0-19.044-13.23-12.57-23.18l46.48-71.34h-31.97c-8.29 0-15-6.72-15-15 0-8.29 6.71-15 15-15h59.65c11.885 0 19.063 13.202 12.57 23.18l-46.49 71.34h35.39c8.28 0 15 6.72 15 15 0 8.29-6.72 15-15 15z"/><path d="m112.1 512h340.18c3.39 0 6.16-2.76 6.16-6.16v-37.38h-402.93c6.64 25.04 29.49 43.54 56.59 43.54z"/><path d="m55.51 438.46h402.93v-43.53h-346.34c-27.09 0-49.95 18.5-56.59 43.53z"/></g></svg>