<svg id="Capa_1" enable-background="new 0 0 512 512" height="512" viewBox="0 0 512 512" width="512" xmlns="http://www.w3.org/2000/svg"><g><path d="m441.5 0h-305.949c-55.168 0-100.051 44.883-100.051 100.051v327.449c0 46.594 37.907 84.5 84.5 84.5h321.5c19.299 0 35-15.701 35-35 0-45.2 0-384.126 0-442 0-19.299-15.701-35-35-35zm5 412.5h-378.884c6.533-22.778 27.535-39.5 52.384-39.5h326.5zm-310.949-382.5h305.949c2.757 0 5 2.243 5 5v308h-326.5c-20.755 0-39.775 7.536-54.5 19.997v-262.946c0-38.626 31.425-70.051 70.051-70.051zm305.949 452h-321.5c-24.849 0-45.851-16.722-52.384-39.5h378.884v34.5c0 2.757-2.243 5-5 5z"/><path d="m159.252 183.582c7.743 2.951 16.408-.937 19.356-8.679l5.161-13.55h36.324l5.097 13.507c2.935 7.777 11.603 11.654 19.33 8.738 7.75-2.926 11.663-11.58 8.737-19.33l-35.173-93.202c-.052-.138-.105-.273-.161-.409-5.832-14.181-25.921-14.147-31.72.029-.046.113-.091.227-.135.341l-35.496 93.198c-2.947 7.743.938 16.409 8.68 19.357zm49.519-52.228h-13.576l6.819-17.904z"/><path d="m284.348 312.965h63.062c8.284 0 15-6.716 15-15s-6.716-15-15-15h-35.385l46.484-71.341c6.494-9.966-.678-23.188-12.567-23.188h-59.655c-8.284 0-15 6.716-15 15s6.716 15 15 15h31.978l-46.484 71.341c-6.495 9.965.678 23.188 12.567 23.188z"/></g></svg>